<?xml version="1.0" encoding="utf-8"?>
<!-- Generator: Adobe Illustrator 19.2.1, SVG Export Plug-In . SVG Version: 6.00 Build 0)  -->
<svg version="1.1" id="TYPO" xmlns="http://www.w3.org/2000/svg" xmlns:xlink="http://www.w3.org/1999/xlink" x="0px" y="0px"
	 viewBox="0 0 49 16" style="enable-background:new 0 0 49 16;" xml:space="preserve">
<style type="text/css">
	.st0{fill:#424242;}
	.st1{fill:url(#_x2E__1_);}
</style>
<path id="l_1_" class="st0" d="M47,2c0-0.6,0.4-1,1-1s1,0.4,1,1v13c0,0.6-0.4,1-1,1s-1-0.4-1-1V2z"/>
<path id="l" class="st0" d="M43,2c0-0.6,0.4-1,1-1s1,0.4,1,1v13c0,0.6-0.4,1-1,1s-1-0.4-1-1V2z"/>
<path id="a_1_" class="st0" d="M40,6c-0.6,0-1,0.4-1,1c-0.8-0.6-1.9-1-3-1c-2.8,0-5,2.2-5,5s2.2,5,5,5c1.1,0,2.2-0.4,3-1
	c0,0.5,0.4,1,1,1s1-0.4,1-1V7C41,6.5,40.6,6,40,6z M36,14c-1.7,0-3-1.3-3-3s1.3-3,3-3s3,1.3,3,3S37.7,14,36,14z"/>
<path id="c" class="st0" d="M30.2,7.2C29.3,6.5,28.2,6,27,6c-2.8,0-5,2.2-5,5s2.2,5,5,5c1.2,0,2.4-0.4,3.3-1.2
	c0.4-0.4,0.5-1,0.1-1.4c-0.4-0.4-1-0.5-1.4-0.1c-0.5,0.5-1.2,0.7-2,0.7c-1.7,0-3-1.3-3-3s1.3-3,3-3c0.7,0,1.4,0.2,1.9,0.7
	C29.3,9.1,30,9,30.3,8.6C30.7,8.1,30.6,7.5,30.2,7.2z"/>
<path id="r" class="st0" d="M18,7c0.8-0.6,1.9-1,3-1c0.6,0,1,0.4,1,1s-0.4,1-1,1c-1.7,0-3,1.3-3,3v4c0,0.5-0.4,1-1,1s-1-0.5-1-1V7
	c0-0.5,0.4-1,1-1S18,6.5,18,7L18,7z"/>
<linearGradient id="_x2E__1_" gradientUnits="userSpaceOnUse" x1="-952.75" y1="1793.25" x2="-952.75" y2="1792.25" gradientTransform="matrix(4 0 0 -4 3824 7173)">
	<stop  offset="0" style="stop-color:#2AC420"/>
	<stop  offset="1" style="stop-color:#2CAD00"/>
</linearGradient>
<circle id="_x2E_" class="st1" cx="13" cy="2" r="2"/>
<path id="i" class="st0" d="M12,7c0-0.5,0.4-1,1-1s1,0.5,1,1v8c0,0.5-0.4,1-1,1s-1-0.5-1-1V7z"/>
<path id="a" class="st0" d="M9,6C8.4,6,8,6.4,8,7C7.2,6.4,6.1,6,5,6c-2.8,0-5,2.2-5,5s2.2,5,5,5c1.1,0,2.2-0.4,3-1c0,0.5,0.4,1,1,1
	s1-0.4,1-1V7C10,6.5,9.6,6,9,6z M5,14c-1.7,0-3-1.3-3-3s1.3-3,3-3s3,1.3,3,3S6.7,14,5,14z"/>
</svg>
