<svg xmlns="http://www.w3.org/2000/svg" xmlns:xlink="http://www.w3.org/1999/xlink" width="212" height="28" viewBox="0 0 212 28">
  <defs>
    <path id="aircall-everywhere-a" d="M18.0936702,0.516188831 C20.7923339,1.08248649 22.9175135,3.20766613 23.4838112,5.90632979 C23.7961889,7.25984937 24,9.48473664 24,12 C24,14.5152634 23.7961889,16.7401506 23.4838112,18.0936702 C22.9175135,20.7923339 20.7923339,22.9175135 18.0936702,23.4838112 C16.7401506,23.7961889 14.5152634,24 12,24 C9.48473664,24 7.25984937,23.7961889 5.90632979,23.4838112 C3.20766613,22.9175135 1.08248649,20.7923339 0.516188831,18.0936702 C0.203811119,16.7401506 -4.41436738e-14,14.5152634 -4.4408921e-14,12 C-4.46741682e-14,9.48473664 0.203811119,7.25984937 0.516188831,5.90632979 C1.08248649,3.20766613 3.20766613,1.08248649 5.90632979,0.516188831 C7.25984937,0.203811119 9.48473664,-9.9475983e-14 12,-9.9475983e-14 C14.5152634,-9.9475983e-14 16.7401506,0.203811119 18.0936702,0.516188831 Z M14.8835654,18.4230185 C14.9587225,18.6019067 15.1411107,18.7114887 15.3343426,18.6938533 L15.3343442,18.6938705 C15.3925303,18.6885601 15.4421069,18.6838632 15.483074,18.6797798 C16.4229593,18.5860963 17.1617115,18.4554743 17.5910846,18.3030581 C17.5917816,18.3026931 17.592634,18.3023212 17.5936418,18.3019425 C17.8820273,18.1935676 18.0872337,17.9152369 18.0872337,17.5889778 C18.0872337,17.580868 18.0871069,17.5727878 18.0868552,17.5647391 C18.0861941,17.5516081 18.0854232,17.5381981 18.0845431,17.5245123 C18.0842873,17.5214609 18.0840134,17.5184146 18.0837217,17.5153735 C18.0829026,17.5068341 18.0823893,17.498578 18.0821819,17.4906054 C18.0089271,16.5111702 17.4141149,14.2181578 16.5256943,11.6009551 C15.5100469,8.60895418 14.4478984,6.18668503 13.9689374,5.71422669 C13.9687198,5.71391216 13.9684874,5.71362639 13.9682402,5.71336939 C13.8924939,5.63462263 13.8042804,5.56795489 13.7067751,5.51654157 C13.668716,5.49480579 13.6204924,5.47401985 13.5632392,5.45440989 C13.5617431,5.45389467 13.5602454,5.45338281 13.5587462,5.45287432 L13.5581712,5.45268508 C13.2440572,5.34645936 12.6640896,5.2751821 12,5.27518212 L11.9994218,5.2751821 C11.3359104,5.2751821 10.7559428,5.34645936 10.4412538,5.45287432 C10.4397546,5.45338281 10.4382569,5.45389467 10.4367608,5.45440989 C10.3795076,5.47401985 10.331284,5.49480579 10.2932249,5.51654157 C10.1957196,5.56795489 10.1075061,5.63462263 10.0317598,5.71336939 C10.0315126,5.71362639 10.0312802,5.71391216 10.0310626,5.71422669 C9.55210164,6.18668503 8.48995312,8.60895418 7.47430567,11.6009551 C6.58588506,14.2181578 5.9910729,16.5111702 5.91781809,17.4906054 C5.91761067,17.498578 5.91709739,17.5068341 5.91627827,17.5153735 C5.91598656,17.5184146 5.91571274,17.5214609 5.91545692,17.5245123 C5.91457684,17.5381981 5.91380591,17.5516081 5.91314481,17.5647391 C5.9128931,17.5727878 5.91276631,17.580868 5.91276631,17.5889778 C5.91276631,17.9152369 6.11797268,18.1935676 6.40635815,18.3019425 C6.40736598,18.3023212 6.40821841,18.3026931 6.40891543,18.3030581 C6.83866572,18.4556083 7.5783391,18.5863258 8.51940383,18.6800266 C8.55594112,18.6836646 8.59935539,18.6877929 8.64964651,18.6924129 C8.85117304,18.7109207 9.04166605,18.5974459 9.12135472,18.4114212 C9.35107968,17.8751527 9.83173059,17.4719221 10.4156457,17.3493912 C10.7675608,17.268173 11.3460315,17.2151821 12,17.2151821 C12.6539685,17.2151821 13.2324392,17.268173 13.5843543,17.3493912 C14.1724712,17.4728038 14.6558324,17.8809704 14.8835654,18.4230185 Z"/>
  </defs>
  <g fill="none" fill-rule="evenodd">
    <g transform="translate(0 2)">
      <use fill="#000000" transform="translate(.48)" xlink:href="#aircall-everywhere-a"/>
      <path fill="#000000" d="M39.6259389,8.92546987 L41.9446248,8.92546987 L41.9446248,19.0334767 L39.6259389,19.0334767 L39.6259389,17.2573764 C38.9013496,18.5171685 37.6591964,19.24 36.0443973,19.24 C33.3530655,19.24 31.2,16.8856345 31.2,13.973656 C31.2,11.0616776 33.3530655,8.72796442 36.0443973,8.72796442 C37.6591964,8.72796442 38.9013496,9.45079594 39.6259389,10.710588 L39.6259389,8.92546987 Z M74.3401347,8.92546987 L76.6588206,8.92546987 L76.6588206,19.0334767 L74.3401347,19.0334767 L74.3401347,17.2573764 C73.6155454,18.5171685 72.3733922,19.24 70.7585931,19.24 C68.0672613,19.24 65.9141958,16.8856345 65.9141958,13.973656 C65.9141958,11.0616776 68.0672613,8.72796442 70.7585931,8.72796442 C72.3733922,8.72796442 73.6155454,9.45079594 74.3401347,10.710588 L74.3401347,8.92546987 Z M36.5930635,17.0432902 C38.3527804,17.0432902 39.6777438,15.7215411 39.6777438,13.9660931 C39.6777438,12.2312975 38.3527804,10.9095484 36.5930635,10.9095484 C34.8747516,10.9095484 33.5083831,12.2726021 33.5083831,13.9660931 C33.5083831,15.6802365 34.8747516,17.0432902 36.5930635,17.0432902 Z M71.1857654,17.0432902 C72.9454824,17.0432902 74.2704458,15.7215411 74.2704458,13.9660931 C74.2704458,12.2312975 72.9454824,10.9095484 71.1857654,10.9095484 C69.4674536,10.9095484 68.1010851,12.2726021 68.1010851,13.9660931 C68.1010851,15.6802365 69.4674536,17.0432902 71.1857654,17.0432902 Z M45.4162388,3.88 C46.2236383,3.88 46.9068226,4.56152686 46.9068226,5.34631538 C46.9068226,6.17240855 46.2236383,6.83328308 45.4162388,6.83328308 C44.6088392,6.83328308 43.9463576,6.17240855 43.9463576,5.34631538 C43.9463576,4.56152686 44.6088392,3.88 45.4162388,3.88 Z M44.2775984,8.89764337 L46.5755817,8.89764337 L46.5755817,19.0056496 L44.2775984,19.0056496 L44.2775984,8.89764337 Z M53.7939905,8.70013729 C54.2366772,8.70013729 54.6629297,8.76571431 54.9702524,8.8822616 C55.1511386,8.95085984 55.3107255,9.02664959 55.4345793,9.09066419 L54.499465,11.0435869 C54.2047952,10.9544867 53.8855288,10.9099365 53.5662624,10.9099365 C52.4483246,10.9099365 51.2061714,11.8392913 51.2061714,13.6153917 L51.2061714,19.0056496 L48.9081881,19.0056496 L48.9081881,8.89764274 L51.2061714,8.89764274 L51.2061714,10.3523236 C51.6616276,9.38166416 52.800268,8.70013729 53.7939905,8.70013729 Z M65.3352037,16.4447608 C64.5692093,18.1175994 62.7887897,19.2121729 60.6771294,19.2121729 C57.6752592,19.2121729 55.3772759,16.961069 55.3772759,13.9664812 C55.3772759,10.9718935 57.6545567,8.70013729 60.6564268,8.70013729 C62.6231693,8.70013729 64.2793735,9.67079677 65.0246654,11.1577645 L63.0786255,12.2523379 C62.6645744,11.4468971 61.7536621,10.9099365 60.6564268,10.9099365 C58.9174124,10.9099365 57.6545567,12.2316856 57.6545567,13.9664812 C57.6545567,15.6806246 58.938115,17.0023736 60.6771294,17.0023736 C61.8571749,17.0023736 62.8301949,16.4447608 63.285651,15.5154059 L65.3352037,16.4447608 Z M81.2894103,3.88 L81.2894103,19.0056496 L78.991427,19.0056496 L78.991427,3.88 L81.2894103,3.88 Z M85.92,3.88 L85.92,19.0056496 L83.6220167,19.0056496 L83.6220167,3.88 L85.92,3.88 Z"/>
      <path stroke="#000000" stroke-linecap="round" stroke-linejoin="round" stroke-width="2" d="M97.5,4 L97.5,20"/>
    </g>
    <path fill="#000000" fill-rule="nonzero" d="M119.1465,15.946 C119.1465,16.193 119.1275,16.782 119.0705,17.048 L112.0405,17.048 C112.3255,18.435 113.3135,19.271 114.7575,19.271 C115.8025,19.271 116.7525,18.815 117.1895,18.093 L118.8805,19.176 C118.1965,20.43 116.6385,21.19 114.7195,21.19 C112.0405,21.19 109.8935,19.081 109.8935,16.307 C109.8935,13.609 112.0025,11.519 114.6815,11.519 C117.1895,11.519 119.1465,13.457 119.1465,15.946 Z M112.0785,15.243 L116.9235,15.243 C116.7525,14.198 115.8405,13.438 114.5675,13.438 C113.3135,13.438 112.4015,14.084 112.0785,15.243 Z M129.6345,11.709 L125.7395,21 L123.9155,21 L120.0205,11.709 L122.3195,11.709 L124.8275,18.169 L127.3165,11.709 L129.6345,11.709 Z M139.7615,15.946 C139.7615,16.193 139.7425,16.782 139.6855,17.048 L132.6555,17.048 C132.9405,18.435 133.9285,19.271 135.3725,19.271 C136.4175,19.271 137.3675,18.815 137.8045,18.093 L139.4955,19.176 C138.8115,20.43 137.2535,21.19 135.3345,21.19 C132.6555,21.19 130.5085,19.081 130.5085,16.307 C130.5085,13.609 132.6175,11.519 135.2965,11.519 C137.8045,11.519 139.7615,13.457 139.7615,15.946 Z M132.6935,15.243 L137.5385,15.243 C137.3675,14.198 136.4555,13.438 135.1825,13.438 C133.9285,13.438 133.0165,14.084 132.6935,15.243 Z M146.0125,11.519 C146.4685,11.519 146.9055,11.595 147.1905,11.728 L146.9435,13.78 C146.6015,13.628 146.2025,13.552 145.8035,13.552 C144.7775,13.552 143.6375,14.407 143.6375,16.041 L143.6375,21 L141.5285,21 L141.5285,11.709 L143.6375,11.709 L143.6375,13.039 C144.0555,12.146 145.1005,11.519 146.0125,11.519 Z M155.0375,11.709 L157.3175,11.709 L152.0735,24.268 L149.7935,24.268 L151.4655,20.506 L147.7795,11.709 L150.0595,11.709 L152.5485,18.036 L155.0375,11.709 Z M161.1365,21 L157.7735,11.709 L160.0535,11.709 L161.9915,17.751 L164.1765,11.709 L165.8485,11.709 L168.0525,17.751 L169.9905,11.709 L172.2705,11.709 L168.9075,21 L167.2165,21 L165.0125,14.977 L162.8085,21 L161.1365,21 Z M178.5595,11.519 C180.9345,11.519 182.4165,13.115 182.4165,15.699 L182.4165,21 L180.2885,21 L180.2885,15.965 C180.2885,14.502 179.3955,13.552 178.0465,13.552 C176.6595,13.552 175.7475,14.502 175.7475,15.965 L175.7475,21 L173.6385,21 L173.6385,7.7 L175.7475,7.7 L175.7475,13.172 C176.3365,12.127 177.3245,11.519 178.5595,11.519 Z M193.4175,15.946 C193.4175,16.193 193.3985,16.782 193.3415,17.048 L186.3115,17.048 C186.5965,18.435 187.5845,19.271 189.0285,19.271 C190.0735,19.271 191.0235,18.815 191.4605,18.093 L193.1515,19.176 C192.4675,20.43 190.9095,21.19 188.9905,21.19 C186.3115,21.19 184.1645,19.081 184.1645,16.307 C184.1645,13.609 186.2735,11.519 188.9525,11.519 C191.4605,11.519 193.4175,13.457 193.4175,15.946 Z M186.3495,15.243 L191.1945,15.243 C191.0235,14.198 190.1115,13.438 188.8385,13.438 C187.5845,13.438 186.6725,14.084 186.3495,15.243 Z M199.6685,11.519 C200.1245,11.519 200.5615,11.595 200.8465,11.728 L200.5995,13.78 C200.2575,13.628 199.8585,13.552 199.4595,13.552 C198.4335,13.552 197.2935,14.407 197.2935,16.041 L197.2935,21 L195.1845,21 L195.1845,11.709 L197.2935,11.709 L197.2935,13.039 C197.7115,12.146 198.7565,11.519 199.6685,11.519 Z M211.1065,15.946 C211.1065,16.193 211.0875,16.782 211.0305,17.048 L204.0005,17.048 C204.2855,18.435 205.2735,19.271 206.7175,19.271 C207.7625,19.271 208.7125,18.815 209.1495,18.093 L210.8405,19.176 C210.1565,20.43 208.5985,21.19 206.6795,21.19 C204.0005,21.19 201.8535,19.081 201.8535,16.307 C201.8535,13.609 203.9625,11.519 206.6415,11.519 C209.1495,11.519 211.1065,13.457 211.1065,15.946 Z M204.0385,15.243 L208.8835,15.243 C208.7125,14.198 207.8005,13.438 206.5275,13.438 C205.2735,13.438 204.3615,14.084 204.0385,15.243 Z"/>
  </g>
</svg>
