<?xml version="1.0" encoding="utf-8"?>
<svg version="1.1" id="Layer_1" xmlns="http://www.w3.org/2000/svg" xmlns:xlink="http://www.w3.org/1999/xlink" x="0px" y="0px"
	 viewBox="0 0 28 28" enable-background="new 0 0 28 28" xml:space="preserve">
<defs>
	<linearGradient id="aircall_gradient" gradientUnits="userSpaceOnUse" x1="14" y1="0" x2="14" y2="28">
		<stop  offset="0" style="stop-color:#2AC420"/>
		<stop  offset="1" style="stop-color:#2CAD00"/>
	</linearGradient>
</defs>
<path fill="url(#aircall_gradient)" d="M14,2C7.4,2,2,7.4,2,14s5.4,12,12,12s12-5.4,12-12S20.6,2,14,2z M14,28C6.3,28,0,21.7,0,14
	S6.3,0,14,0s14,6.3,14,14S21.7,28,14,28z M21,18.1c0,0.3-0.2,0.5-0.4,0.7c-0.3,0.4-0.6,0.7-0.9,1c-0.3,0.3-0.6,0.5-0.9,0.7
	c-0.8,0.4-1.7,0.6-2.6,0.5c-1.3-0.1-2.5-0.7-3.6-1.4c-0.8-0.5-1.6-1.2-2.3-1.9c-1.2-1.1-2.2-2.5-2.8-4C7,12.4,6.7,10.8,7.3,9.5
	C7.7,8.6,8.5,8,9.2,7.4C9.4,7.3,9.5,7.1,9.7,7s0.3,0,0.5,0c0.4,0.2,0.7,0.5,0.9,0.8s0.4,0.7,0.6,1.1s0.4,0.8,0.4,1.2
	c0,0.3-0.1,0.6-0.3,0.8c-0.2,0.2-0.5,0.5-0.7,0.7c-0.5,0.6-0.7,1.4-0.7,2.2c0,1,0.4,2,1.1,2.7c1.1,1.1,3,1.4,4.4,0.7
	c0.3-0.2,0.6-0.4,0.9-0.7c0.2-0.2,0.4-0.4,0.6-0.6c0.6-0.4,1.5,0,2.1,0.3c0,0,0,0,0.1,0c0.7,0.3,1.2,0.9,1.4,1.6
	C21,17.9,21,18,21,18.1S21,18.1,21,18.1"/>
</svg>
